solid OpenSCAD_Model
  facet normal -1 0 0
    outer loop
      vertex -1.75 -4.5 -3.5
      vertex -1.75 -7 -3.5
      vertex -1.75 -4.5 -1.5
    endloop
  endfacet
  facet normal -1 0 0
    outer loop
      vertex -1.75 4.5 -1.5
      vertex -1.75 7 -3.5
      vertex -1.75 4.5 -3.5
    endloop
  endfacet
  facet normal -1 0 0
    outer loop
      vertex -1.75 7 -3.5
      vertex -1.75 4.5 -1.5
      vertex -1.75 7 1.5
    endloop
  endfacet
  facet normal -1 0 0
    outer loop
      vertex -1.75 4.5 -1.5
      vertex -1.75 1.7 1.5
      vertex -1.75 7 1.5
    endloop
  endfacet
  facet normal -1 0 0
    outer loop
      vertex -1.75 1.7 1.5
      vertex -1.75 -1.7 1.5
      vertex -1.75 1.7 4
    endloop
  endfacet
  facet normal -1 0 0
    outer loop
      vertex -1.75 4.5 -1.5
      vertex -1.75 -1.7 1.5
      vertex -1.75 1.7 1.5
    endloop
  endfacet
  facet normal -1 0 0
    outer loop
      vertex -1.75 -4.5 -1.5
      vertex -1.75 -1.7 1.5
      vertex -1.75 4.5 -1.5
    endloop
  endfacet
  facet normal -1 0 0
    outer loop
      vertex -1.75 -7 1.5
      vertex -1.75 -4.5 -1.5
      vertex -1.75 -7 -3.5
    endloop
  endfacet
  facet normal -1 0 0
    outer loop
      vertex -1.75 -4.5 -1.5
      vertex -1.75 -7 1.5
      vertex -1.75 -1.7 1.5
    endloop
  endfacet
  facet normal -1 -0 0
    outer loop
      vertex -1.75 1.7 4
      vertex -1.75 -1.7 1.5
      vertex -1.75 -1.7 4
    endloop
  endfacet
  facet normal 0 0 1
    outer loop
      vertex 1.75 -1.7 1.5
      vertex -1.75 -1.7 1.5
      vertex 1.75 -4.5 1.5
    endloop
  endfacet
  facet normal -0 0 1
    outer loop
      vertex 1.75 -4.5 1.5
      vertex 4.25 -7 1.5
      vertex 4.25 -4.5 1.5
    endloop
  endfacet
  facet normal 0 0 1
    outer loop
      vertex -1.75 -7 1.5
      vertex 1.75 -4.5 1.5
      vertex -1.75 -1.7 1.5
    endloop
  endfacet
  facet normal 0 0 1
    outer loop
      vertex 1.75 -4.5 1.5
      vertex -1.75 -7 1.5
      vertex 4.25 -7 1.5
    endloop
  endfacet
  facet normal 0 0 1
    outer loop
      vertex 4.25 7 1.5
      vertex 1.75 4.5 1.5
      vertex 4.25 4.5 1.5
    endloop
  endfacet
  facet normal -0 0 1
    outer loop
      vertex -1.75 7 1.5
      vertex 1.75 4.5 1.5
      vertex 4.25 7 1.5
    endloop
  endfacet
  facet normal 0 0 1
    outer loop
      vertex -1.75 1.7 1.5
      vertex 1.75 4.5 1.5
      vertex -1.75 7 1.5
    endloop
  endfacet
  facet normal 0 0 1
    outer loop
      vertex 1.75 4.5 1.5
      vertex -1.75 1.7 1.5
      vertex 1.75 1.7 1.5
    endloop
  endfacet
  facet normal 1 0 0
    outer loop
      vertex 1.75 1.7 4
      vertex 1.75 -1.7 4
      vertex 1.75 1.7 1.5
    endloop
  endfacet
  facet normal 1 -0 0
    outer loop
      vertex 1.75 1.7 1.5
      vertex 1.75 4.5 -1.5
      vertex 1.75 4.5 1.5
    endloop
  endfacet
  facet normal 1 0 0
    outer loop
      vertex 1.75 -1.7 1.5
      vertex 1.75 1.7 1.5
      vertex 1.75 -1.7 4
    endloop
  endfacet
  facet normal 1 0 0
    outer loop
      vertex 1.75 1.7 1.5
      vertex 1.75 -1.7 1.5
      vertex 1.75 4.5 -1.5
    endloop
  endfacet
  facet normal 1 0 0
    outer loop
      vertex 1.75 -4.5 -1.5
      vertex 1.75 -1.7 1.5
      vertex 1.75 -4.5 1.5
    endloop
  endfacet
  facet normal 1 0 0
    outer loop
      vertex 1.75 -1.7 1.5
      vertex 1.75 -4.5 -1.5
      vertex 1.75 4.5 -1.5
    endloop
  endfacet
  facet normal 0 0 -1
    outer loop
      vertex -1.75 -4.5 -1.5
      vertex 1.75 4.5 -1.5
      vertex 1.75 -4.5 -1.5
    endloop
  endfacet
  facet normal -0 0 -1
    outer loop
      vertex 1.75 4.5 -1.5
      vertex -1.75 -4.5 -1.5
      vertex -1.75 4.5 -1.5
    endloop
  endfacet
  facet normal 0 -1 0
    outer loop
      vertex -1.75 -7 -3.5
      vertex 4.25 -7 1.5
      vertex -1.75 -7 1.5
    endloop
  endfacet
  facet normal 0 -1 -0
    outer loop
      vertex 4.25 -7 1.5
      vertex -1.75 -7 -3.5
      vertex 4.25 -7 -3.5
    endloop
  endfacet
  facet normal 0 1 -0
    outer loop
      vertex 4.25 7 -3.5
      vertex -1.75 7 1.5
      vertex 4.25 7 1.5
    endloop
  endfacet
  facet normal 0 1 0
    outer loop
      vertex -1.75 7 1.5
      vertex 4.25 7 -3.5
      vertex -1.75 7 -3.5
    endloop
  endfacet
  facet normal -0 0 1
    outer loop
      vertex -1.75 1.7 4
      vertex 1.75 -1.7 4
      vertex 1.75 1.7 4
    endloop
  endfacet
  facet normal 0 0 1
    outer loop
      vertex 1.75 -1.7 4
      vertex -1.75 1.7 4
      vertex -1.75 -1.7 4
    endloop
  endfacet
  facet normal 0 -1 0
    outer loop
      vertex -1.75 -1.7 1.5
      vertex 1.75 -1.7 4
      vertex -1.75 -1.7 4
    endloop
  endfacet
  facet normal 0 -1 -0
    outer loop
      vertex 1.75 -1.7 4
      vertex -1.75 -1.7 1.5
      vertex 1.75 -1.7 1.5
    endloop
  endfacet
  facet normal 0 1 -0
    outer loop
      vertex 1.75 1.7 1.5
      vertex -1.75 1.7 4
      vertex 1.75 1.7 4
    endloop
  endfacet
  facet normal 0 1 0
    outer loop
      vertex -1.75 1.7 4
      vertex 1.75 1.7 1.5
      vertex -1.75 1.7 1.5
    endloop
  endfacet
  facet normal 1 -0 0
    outer loop
      vertex 4.25 4.5 1.5
      vertex 4.25 7 -3.5
      vertex 4.25 7 1.5
    endloop
  endfacet
  facet normal 1 0 0
    outer loop
      vertex 4.25 7 -3.5
      vertex 4.25 4.5 1.5
      vertex 4.25 4.5 -3.5
    endloop
  endfacet
  facet normal 0 0 -1
    outer loop
      vertex -1.75 4.5 -3.5
      vertex 4.25 7 -3.5
      vertex 4.25 4.5 -3.5
    endloop
  endfacet
  facet normal -0 0 -1
    outer loop
      vertex 4.25 7 -3.5
      vertex -1.75 4.5 -3.5
      vertex -1.75 7 -3.5
    endloop
  endfacet
  facet normal 0 -1 0
    outer loop
      vertex -1.75 4.5 -1.5
      vertex -1.75 4.5 -3.5
      vertex 1.75 4.5 -1.5
    endloop
  endfacet
  facet normal 0 -1 0
    outer loop
      vertex 1.75 4.5 -1.5
      vertex 4.25 4.5 1.5
      vertex 1.75 4.5 1.5
    endloop
  endfacet
  facet normal 0 -1 0
    outer loop
      vertex 1.75 4.5 -1.5
      vertex 4.25 4.5 -3.5
      vertex 4.25 4.5 1.5
    endloop
  endfacet
  facet normal 0 -1 0
    outer loop
      vertex 4.25 4.5 -3.5
      vertex 1.75 4.5 -1.5
      vertex -1.75 4.5 -3.5
    endloop
  endfacet
  facet normal 1 -0 0
    outer loop
      vertex 4.25 -7 1.5
      vertex 4.25 -4.5 -3.5
      vertex 4.25 -4.5 1.5
    endloop
  endfacet
  facet normal 1 0 0
    outer loop
      vertex 4.25 -4.5 -3.5
      vertex 4.25 -7 1.5
      vertex 4.25 -7 -3.5
    endloop
  endfacet
  facet normal 0 1 0
    outer loop
      vertex 4.25 -4.5 1.5
      vertex 1.75 -4.5 -1.5
      vertex 1.75 -4.5 1.5
    endloop
  endfacet
  facet normal 0 1 -0
    outer loop
      vertex 4.25 -4.5 -3.5
      vertex 1.75 -4.5 -1.5
      vertex 4.25 -4.5 1.5
    endloop
  endfacet
  facet normal 0 1 0
    outer loop
      vertex -1.75 -4.5 -3.5
      vertex 1.75 -4.5 -1.5
      vertex 4.25 -4.5 -3.5
    endloop
  endfacet
  facet normal 0 1 0
    outer loop
      vertex 1.75 -4.5 -1.5
      vertex -1.75 -4.5 -3.5
      vertex -1.75 -4.5 -1.5
    endloop
  endfacet
  facet normal 0 0 -1
    outer loop
      vertex -1.75 -7 -3.5
      vertex 4.25 -4.5 -3.5
      vertex 4.25 -7 -3.5
    endloop
  endfacet
  facet normal -0 0 -1
    outer loop
      vertex 4.25 -4.5 -3.5
      vertex -1.75 -7 -3.5
      vertex -1.75 -4.5 -3.5
    endloop
  endfacet
endsolid OpenSCAD_Model
