solid OpenSCAD_Model
  facet normal -1 0 0
    outer loop
      vertex 0 149 0
      vertex 0 150 0.299999
      vertex 0 150 0
    endloop
  endfacet
  facet normal -1 -0 0
    outer loop
      vertex 0 150 0.299999
      vertex 0 149 0
      vertex 0 149 0.299999
    endloop
  endfacet
  facet normal 0 0 1
    outer loop
      vertex 150 150 0.299999
      vertex 149 149 0.299999
      vertex 150 0 0.299999
    endloop
  endfacet
  facet normal -0 0 1
    outer loop
      vertex 0 150 0.299999
      vertex 149 149 0.299999
      vertex 150 150 0.299999
    endloop
  endfacet
  facet normal 0 0 1
    outer loop
      vertex 149 149 0.299999
      vertex 0 150 0.299999
      vertex 0 149 0.299999
    endloop
  endfacet
  facet normal 0 0 1
    outer loop
      vertex 150 0 0.299999
      vertex 149 149 0.299999
      vertex 149 0 0.299999
    endloop
  endfacet
  facet normal 1 -0 0
    outer loop
      vertex 150 0 0.299999
      vertex 150 150 0
      vertex 150 150 0.299999
    endloop
  endfacet
  facet normal 1 0 0
    outer loop
      vertex 150 150 0
      vertex 150 0 0.299999
      vertex 150 0 0
    endloop
  endfacet
  facet normal 0 0 -1
    outer loop
      vertex 149 149 0
      vertex 150 0 0
      vertex 149 0 0
    endloop
  endfacet
  facet normal 0 0 -1
    outer loop
      vertex 150 0 0
      vertex 149 149 0
      vertex 150 150 0
    endloop
  endfacet
  facet normal 0 0 -1
    outer loop
      vertex 0 150 0
      vertex 149 149 0
      vertex 0 149 0
    endloop
  endfacet
  facet normal 0 0 -1
    outer loop
      vertex 149 149 0
      vertex 0 150 0
      vertex 150 150 0
    endloop
  endfacet
  facet normal 0 -1 0
    outer loop
      vertex 149 0 0
      vertex 150 0 0.299999
      vertex 149 0 0.299999
    endloop
  endfacet
  facet normal 0 -1 -0
    outer loop
      vertex 150 0 0.299999
      vertex 149 0 0
      vertex 150 0 0
    endloop
  endfacet
  facet normal 0 1 -0
    outer loop
      vertex 150 150 0
      vertex 0 150 0.299999
      vertex 150 150 0.299999
    endloop
  endfacet
  facet normal 0 1 0
    outer loop
      vertex 0 150 0.299999
      vertex 150 150 0
      vertex 0 150 0
    endloop
  endfacet
  facet normal -1 0 0
    outer loop
      vertex 149 0 0
      vertex 149 149 0.299999
      vertex 149 149 0
    endloop
  endfacet
  facet normal -1 -0 0
    outer loop
      vertex 149 149 0.299999
      vertex 149 0 0
      vertex 149 0 0.299999
    endloop
  endfacet
  facet normal 0 -1 0
    outer loop
      vertex 0 149 0
      vertex 149 149 0.299999
      vertex 0 149 0.299999
    endloop
  endfacet
  facet normal 0 -1 -0
    outer loop
      vertex 149 149 0.299999
      vertex 0 149 0
      vertex 149 149 0
    endloop
  endfacet
  facet normal -1 0 0
    outer loop
      vertex 0 99 0
      vertex 0 100 0.299999
      vertex 0 100 0
    endloop
  endfacet
  facet normal -1 -0 0
    outer loop
      vertex 0 100 0.299999
      vertex 0 99 0
      vertex 0 99 0.299999
    endloop
  endfacet
  facet normal 0 0 1
    outer loop
      vertex 100 100 0.299999
      vertex 99 99 0.299999
      vertex 100 0 0.299999
    endloop
  endfacet
  facet normal -0 0 1
    outer loop
      vertex 0 100 0.299999
      vertex 99 99 0.299999
      vertex 100 100 0.299999
    endloop
  endfacet
  facet normal 0 0 1
    outer loop
      vertex 99 99 0.299999
      vertex 0 100 0.299999
      vertex 0 99 0.299999
    endloop
  endfacet
  facet normal 0 0 1
    outer loop
      vertex 100 0 0.299999
      vertex 99 99 0.299999
      vertex 99 0 0.299999
    endloop
  endfacet
  facet normal 1 -0 0
    outer loop
      vertex 100 0 0.299999
      vertex 100 100 0
      vertex 100 100 0.299999
    endloop
  endfacet
  facet normal 1 0 0
    outer loop
      vertex 100 100 0
      vertex 100 0 0.299999
      vertex 100 0 0
    endloop
  endfacet
  facet normal 0 0 -1
    outer loop
      vertex 99 99 0
      vertex 100 0 0
      vertex 99 0 0
    endloop
  endfacet
  facet normal 0 0 -1
    outer loop
      vertex 100 0 0
      vertex 99 99 0
      vertex 100 100 0
    endloop
  endfacet
  facet normal 0 0 -1
    outer loop
      vertex 0 100 0
      vertex 99 99 0
      vertex 0 99 0
    endloop
  endfacet
  facet normal 0 0 -1
    outer loop
      vertex 99 99 0
      vertex 0 100 0
      vertex 100 100 0
    endloop
  endfacet
  facet normal 0 -1 0
    outer loop
      vertex 99 0 0
      vertex 100 0 0.299999
      vertex 99 0 0.299999
    endloop
  endfacet
  facet normal 0 -1 -0
    outer loop
      vertex 100 0 0.299999
      vertex 99 0 0
      vertex 100 0 0
    endloop
  endfacet
  facet normal 0 1 -0
    outer loop
      vertex 100 100 0
      vertex 0 100 0.299999
      vertex 100 100 0.299999
    endloop
  endfacet
  facet normal 0 1 0
    outer loop
      vertex 0 100 0.299999
      vertex 100 100 0
      vertex 0 100 0
    endloop
  endfacet
  facet normal -1 0 0
    outer loop
      vertex 99 0 0
      vertex 99 99 0.299999
      vertex 99 99 0
    endloop
  endfacet
  facet normal -1 -0 0
    outer loop
      vertex 99 99 0.299999
      vertex 99 0 0
      vertex 99 0 0.299999
    endloop
  endfacet
  facet normal 0 -1 0
    outer loop
      vertex 0 99 0
      vertex 99 99 0.299999
      vertex 0 99 0.299999
    endloop
  endfacet
  facet normal 0 -1 -0
    outer loop
      vertex 99 99 0.299999
      vertex 0 99 0
      vertex 99 99 0
    endloop
  endfacet
  facet normal -1 0 0
    outer loop
      vertex 0 49 0
      vertex 0 50 0.299999
      vertex 0 50 0
    endloop
  endfacet
  facet normal -1 -0 0
    outer loop
      vertex 0 50 0.299999
      vertex 0 49 0
      vertex 0 49 0.299999
    endloop
  endfacet
  facet normal 0 0 1
    outer loop
      vertex 50 50 0.299999
      vertex 49 49 0.299999
      vertex 50 0 0.299999
    endloop
  endfacet
  facet normal -0 0 1
    outer loop
      vertex 0 50 0.299999
      vertex 49 49 0.299999
      vertex 50 50 0.299999
    endloop
  endfacet
  facet normal 0 0 1
    outer loop
      vertex 49 49 0.299999
      vertex 0 50 0.299999
      vertex 0 49 0.299999
    endloop
  endfacet
  facet normal 0 0 1
    outer loop
      vertex 50 0 0.299999
      vertex 49 49 0.299999
      vertex 49 0 0.299999
    endloop
  endfacet
  facet normal 1 -0 0
    outer loop
      vertex 50 0 0.299999
      vertex 50 50 0
      vertex 50 50 0.299999
    endloop
  endfacet
  facet normal 1 0 0
    outer loop
      vertex 50 50 0
      vertex 50 0 0.299999
      vertex 50 0 0
    endloop
  endfacet
  facet normal 0 0 -1
    outer loop
      vertex 49 49 0
      vertex 50 0 0
      vertex 49 0 0
    endloop
  endfacet
  facet normal 0 0 -1
    outer loop
      vertex 50 0 0
      vertex 49 49 0
      vertex 50 50 0
    endloop
  endfacet
  facet normal 0 0 -1
    outer loop
      vertex 0 50 0
      vertex 49 49 0
      vertex 0 49 0
    endloop
  endfacet
  facet normal 0 0 -1
    outer loop
      vertex 49 49 0
      vertex 0 50 0
      vertex 50 50 0
    endloop
  endfacet
  facet normal 0 -1 0
    outer loop
      vertex 49 0 0
      vertex 50 0 0.299999
      vertex 49 0 0.299999
    endloop
  endfacet
  facet normal 0 -1 -0
    outer loop
      vertex 50 0 0.299999
      vertex 49 0 0
      vertex 50 0 0
    endloop
  endfacet
  facet normal 0 1 -0
    outer loop
      vertex 50 50 0
      vertex 0 50 0.299999
      vertex 50 50 0.299999
    endloop
  endfacet
  facet normal 0 1 0
    outer loop
      vertex 0 50 0.299999
      vertex 50 50 0
      vertex 0 50 0
    endloop
  endfacet
  facet normal -1 0 0
    outer loop
      vertex 49 0 0
      vertex 49 49 0.299999
      vertex 49 49 0
    endloop
  endfacet
  facet normal -1 -0 0
    outer loop
      vertex 49 49 0.299999
      vertex 49 0 0
      vertex 49 0 0.299999
    endloop
  endfacet
  facet normal 0 -1 0
    outer loop
      vertex 0 49 0
      vertex 49 49 0.299999
      vertex 0 49 0.299999
    endloop
  endfacet
  facet normal 0 -1 -0
    outer loop
      vertex 49 49 0.299999
      vertex 0 49 0
      vertex 49 49 0
    endloop
  endfacet
  facet normal -1 0 0
    outer loop
      vertex 0 9 0
      vertex 0 10 0.299999
      vertex 0 10 0
    endloop
  endfacet
  facet normal -1 -0 0
    outer loop
      vertex 0 10 0.299999
      vertex 0 9 0
      vertex 0 9 0.299999
    endloop
  endfacet
  facet normal 0 0 1
    outer loop
      vertex 10 10 0.299999
      vertex 9 9 0.299999
      vertex 10 0 0.299999
    endloop
  endfacet
  facet normal -0 0 1
    outer loop
      vertex 0 10 0.299999
      vertex 9 9 0.299999
      vertex 10 10 0.299999
    endloop
  endfacet
  facet normal 0 0 1
    outer loop
      vertex 9 9 0.299999
      vertex 0 10 0.299999
      vertex 0 9 0.299999
    endloop
  endfacet
  facet normal 0 0 1
    outer loop
      vertex 10 0 0.299999
      vertex 9 9 0.299999
      vertex 9 0 0.299999
    endloop
  endfacet
  facet normal 1 -0 0
    outer loop
      vertex 10 0 0.299999
      vertex 10 10 0
      vertex 10 10 0.299999
    endloop
  endfacet
  facet normal 1 0 0
    outer loop
      vertex 10 10 0
      vertex 10 0 0.299999
      vertex 10 0 0
    endloop
  endfacet
  facet normal 0 1 -0
    outer loop
      vertex 10 10 0
      vertex 0 10 0.299999
      vertex 10 10 0.299999
    endloop
  endfacet
  facet normal 0 1 0
    outer loop
      vertex 0 10 0.299999
      vertex 10 10 0
      vertex 0 10 0
    endloop
  endfacet
  facet normal 0 0 -1
    outer loop
      vertex 9 9 0
      vertex 10 0 0
      vertex 9 0 0
    endloop
  endfacet
  facet normal 0 0 -1
    outer loop
      vertex 10 0 0
      vertex 9 9 0
      vertex 10 10 0
    endloop
  endfacet
  facet normal 0 0 -1
    outer loop
      vertex 0 10 0
      vertex 9 9 0
      vertex 0 9 0
    endloop
  endfacet
  facet normal 0 0 -1
    outer loop
      vertex 9 9 0
      vertex 0 10 0
      vertex 10 10 0
    endloop
  endfacet
  facet normal 0 -1 0
    outer loop
      vertex 9 0 0
      vertex 10 0 0.299999
      vertex 9 0 0.299999
    endloop
  endfacet
  facet normal 0 -1 -0
    outer loop
      vertex 10 0 0.299999
      vertex 9 0 0
      vertex 10 0 0
    endloop
  endfacet
  facet normal -1 0 0
    outer loop
      vertex 9 0 0
      vertex 9 9 0.299999
      vertex 9 9 0
    endloop
  endfacet
  facet normal -1 -0 0
    outer loop
      vertex 9 9 0.299999
      vertex 9 0 0
      vertex 9 0 0.299999
    endloop
  endfacet
  facet normal 0 -1 0
    outer loop
      vertex 0 9 0
      vertex 9 9 0.299999
      vertex 0 9 0.299999
    endloop
  endfacet
  facet normal 0 -1 -0
    outer loop
      vertex 9 9 0.299999
      vertex 0 9 0
      vertex 9 9 0
    endloop
  endfacet
endsolid OpenSCAD_Model
